# xmcd CD database file
#
# Track frame offsets:
#	150
#	17662
#	36120
#	52697
#	71907
#	93182
#	111182
#	132030
#	149622
#	170730
#
# Disc length: 2475 seconds
#
# Revision: 0
# Processed by: cddbd v1.5.1PL0 Copyright (c) Steve Scherf et al.
# Submitted via: CDex 1.51
#
DISCID=8609a90a
DTITLE=Giovanni - Priority
DYEAR=1900
DGENRE=Merengue
TTITLE0=A ti Jehova
TTITLE1=Te alabare, oh Jesus
TTITLE2=No temas ni desmayes
TTITLE3=Voy a prosperar
TTITLE4=Le llaman Jesus
TTITLE5=La paloma del amor
TTITLE6=Rompe las cadenas
TTITLE7=Todo es vanidad
TTITLE8=Los paises estan gozando
TTITLE9=Alabanza tropical
EXTD=
EXTT0=
EXTT1=
EXTT2=
EXTT3=
EXTT4=
EXTT5=
EXTT6=
EXTT7=
EXTT8=
EXTT9=
PLAYORDER=
